HIERARCHY
ROOT Hips
{
  OFFSET 23.1697 37.4474 20.9601
  CHANNELS 6 Xposition Yposition Zposition Zrotation Xrotation Yrotation
  JOINT LeftHip
  {
    OFFSET 3.43 0 0
    CHANNELS 3 Zrotation Xrotation Yrotation
    JOINT LeftKnee
    {
      OFFSET 0 -18.47 0
      CHANNELS 3 Zrotation Xrotation Yrotation
      JOINT LeftAnkle
      {
        OFFSET 0 -17.95 0
        CHANNELS 3 Zrotation Xrotation Yrotation
        End Site
        {
          OFFSET 0 -3.12 0
        }
      }
    }
  }
  JOINT RightHip
  {
    OFFSET -3.43 0 0
    CHANNELS 3 Zrotation Xrotation Yrotation
    JOINT RightKnee
    {
      OFFSET 0 -18.47 0
      CHANNELS 3 Zrotation Xrotation Yrotation
      JOINT RightAnkle
      {
        OFFSET 0 -17.95 0
        CHANNELS 3 Zrotation Xrotation Yrotation
        End Site
        {
          OFFSET 0 -3.12 0
        }
      }
    }
  }
  JOINT Chest
  {
    OFFSET 0 4.57 0
    CHANNELS 3 Zrotation Xrotation Yrotation
    JOINT CS_BVH
    {
      OFFSET 0 6.57 0
      CHANNELS 3 Zrotation Xrotation Yrotation
      JOINT LeftCollar
      {
        OFFSET 1.06 4.19 1.76
        CHANNELS 3 Zrotation Xrotation Yrotation
        JOINT LeftShoulder
        {
          OFFSET 5.81 0 0
          CHANNELS 3 Zrotation Xrotation Yrotation
          JOINT LeftElbow
          {
            OFFSET 0 -12.08 0
            CHANNELS 3 Zrotation Xrotation Yrotation
            JOINT LeftWrist
            {
              OFFSET 0 -9.82 0
              CHANNELS 3 Zrotation Xrotation Yrotation
              End Site
              {
                OFFSET 0 -7.37 0
              }
            }
          }
        }
      }
      JOINT RightCollar
      {
        OFFSET -1.06 4.19 1.76
        CHANNELS 3 Zrotation Xrotation Yrotation
        JOINT RightShoulder
        {
          OFFSET -6.06 0 0
          CHANNELS 3 Zrotation Xrotation Yrotation
          JOINT RightElbow
          {
            OFFSET 0 -11.08 0
            CHANNELS 3 Zrotation Xrotation Yrotation
            JOINT RightWrist
            {
              OFFSET 0 -9.82 0
              CHANNELS 3 Zrotation Xrotation Yrotation
              End Site
              {
                OFFSET 0 -7.14001 0
              }
            }
          }
        }
      }
      JOINT Neck
      {
        OFFSET 0 4.05 0
        CHANNELS 3 Zrotation Xrotation Yrotation
        JOINT Head
        {
          OFFSET 0 5.19 0
          CHANNELS 3 Zrotation Xrotation Yrotation
          End Site
          {
            OFFSET 0 4.14001 0
          }
        }
      }
    }
  }
}
MOTION
Frames:	9
Frame Time:	0.0333333
25.6242 39.8177 -42.0192 0.461792 -0.022692 0.0127653 2.58702 -5.48799 -0.0448878 -0.00769471 11.1779 -0.132044 -3.0473 -5.66846 -0.138241 -3.5431 -8.97288 -0.00221792 -0.0171812 18.258 0.220803 3.10285 -9.26044 0.275086 -0.628439 -0.0207901 0.0146829 -0.152225 -0.0398449 0.0248474 10 -5.92999e-014 1.09083e-014 80 -1.5704e-014 4.59143e-012 5.29228e-011 -6.52449e-013 1.98286e-010 1.67741e-010 -8.23594e-012 1.08203e-009 -10 -5.80203e-014 -8.98879e-015 -80 -8.74093e-014 -4.46547e-012 6.94276e-011 -1.64611e-012 -1.9384e-010 2.20573e-010 -2.28048e-011 -1.0581e-009 -3.4337e-014 -4.06266e-014 6.4605e-016 -1.08741e-013 -2.23496e-013 2.82026e-015 
24.006 38.3818 -42.7393 -2.45781 4.80464 -37.8003 2.17731 -16.199 1.03408 0.0334017 50.1919 -0.202335 1.28437 -33.3014 9.29904 3.29362 -21.3315 4.65132 0.0330374 53.0392 0.120342 -0.604434 -28.6133 -9.81138 0.260026 2.67705 -0.898286 4.60594 -3.44623 -0.101083 10 -5.92999e-014 1.09083e-014 -3.59935 -0.00547316 -2.69347 13.7199 -21.6736 4.34264 -0.0576903 -0.821849 -11.0226 -10 -5.80203e-014 -8.98879e-015 0.679138 5.34821 0.206538 -18.5582 -27.4578 -7.45265 0.195699 1.61672 -16.3133 -18.8951 -10.7803 -9.16977 26.7209 22.8759 -20.2032 
23.9918 38.3788 -42.7538 -2.49309 4.95397 -37.955 2.31322 -16.2733 1.00523 0.0325926 50.1754 -0.202265 1.33275 -33.2302 9.43725 3.55771 -21.4354 4.91408 0.0324627 53.0987 0.120393 -0.607956 -28.7562 -9.7548 0.364874 2.56724 -1.07761 5.42896 -4.05334 -0.107855 10 -5.92999e-014 1.09083e-014 -4.44942 0.825384 -2.84268 13.9602 -21.9997 4.45806 -0.0496825 -0.793076 -10.633 -10 -5.80203e-014 -8.98879e-015 -0.246217 5.62296 1.67694 -19.2146 -28.209 -7.84042 0.212721 1.67858 -16.9542 -19.4051 -10.7378 -9.16684 26.2825 23.031 -20.036 
23.991 38.3711 -42.7457 -2.34753 4.96895 -37.7438 2.23584 -16.4163 0.94557 0.0335455 50.208 -0.202404 1.18624 -33.2793 9.09062 3.42166 -21.5313 4.77684 0.0315943 53.1736 0.120731 -0.716671 -28.7334 -9.97104 0.294273 2.3419 -1.02809 5.2094 -3.8879 -0.107506 10 -5.92999e-014 1.09083e-014 -4.07458 0.188673 -3.04034 13.7092 -21.6591 4.33757 -0.0537738 -0.800784 -10.7373 -10 -5.80203e-014 -8.98879e-015 0.0590444 5.23489 1.93637 -19.7306 -28.7886 -8.14966 0.218759 1.69989 -17.1755 -19.252 -10.7502 -9.31081 26.578 22.6126 -20.3189 
23.9619 38.3717 -42.6783 -2.16679 4.68139 -38.0063 1.82426 -16.0687 0.910505 0.0344426 50.0469 -0.201724 1.36433 -33.3375 9.46962 3.09453 -21.3935 4.84039 0.0305482 53.2859 0.12119 -0.658125 -28.8213 -9.84558 0.102029 2.05597 -0.884449 5.27037 -3.66286 -0.0743247 10 -5.92999e-014 1.09083e-014 -4.38088 0.234419 -2.99639 13.5936 -21.5015 4.28254 -0.0604331 -0.818241 -10.9737 -10 -5.80203e-014 -8.98879e-015 -0.189021 5.20702 2.75835 -20.267 -29.3809 -8.47506 0.218826 1.7203 -17.3876 -19.856 -10.124 -9.21459 27.4445 21.9245 -20.269 
23.9198 38.3647 -42.7373 -2.41588 5.07618 -37.9629 2.51663 -16.4035 1.20519 0.0375445 50.1904 -0.202329 1.29501 -33.2307 9.35525 3.79796 -21.5444 5.15769 0.0303618 53.1974 0.120865 -0.784874 -28.7282 -10.2339 0.670582 1.90227 -0.798737 5.20132 -3.8828 -0.0433283 10 -5.92999e-014 1.09083e-014 -4.52922 0.214091 -3.3378 13.4626 -21.3222 4.22044 -0.0589204 -0.816098 -10.9447 -10 -5.80203e-014 -8.98879e-015 -0.0640602 5.13614 2.97328 -20.6223 -29.7676 -8.69283 0.225173 1.7222 -17.4073 -19.6399 -10.1686 -9.23525 26.9748 22.2658 -20.32 
23.9171 38.3616 -42.7121 -2.2863 4.97762 -38.0489 2.21435 -16.2894 0.945759 0.0398043 50.172 -0.202251 1.41525 -33.3509 9.60043 3.67632 -21.4646 5.30187 0.0303485 53.1577 0.120232 -0.786773 -28.9159 -10.1474 0.566974 1.7959 -0.961494 5.19301 -3.77706 -0.094565 10 -5.92999e-014 1.09083e-014 -4.70752 0.348806 -3.60624 13.7163 -21.6688 4.34102 -0.0528965 -0.80172 -10.75 -10 -5.80203e-014 -8.98879e-015 -0.185857 4.989 3.58418 -20.7994 -29.9586 -8.80193 0.225623 1.72375 -17.4234 -19.4142 -10.5449 -9.15522 26.7576 22.6481 -20.1053 
23.8869 38.3625 -42.6802 -2.26271 4.86659 -38.0018 2.18439 -16.117 1.13831 0.0413719 50.1064 -0.201974 1.43917 -33.2882 9.65372 3.41393 -21.3014 4.93624 0.0317476 53.0945 0.117868 -0.657723 -28.9196 -9.80167 0.439095 1.77058 -0.94514 5.15148 -3.91675 -0.0870137 10 -5.92999e-014 1.09083e-014 -4.83673 0.482881 -3.71436 13.6439 -21.57 4.30645 -0.0550566 -0.807879 -10.8334 -10 -5.80203e-014 -8.98879e-015 -0.0456379 5.19313 4.24664 -20.9583 -30.1291 -8.90022 0.234674 1.75463 -17.7449 -19.3636 -10.4396 -9.19556 26.8064 22.5758 -20.2352 
23.8428 38.3632 -42.6739 -2.56125 5.07361 -38.0903 2.59124 -16.0747 1.12239 0.0432225 50.2088 -0.202407 1.44083 -33.4805 9.57284 3.92224 -21.1686 5.14966 0.0352637 52.9618 0.112967 -0.743152 -28.755 -10.1162 0.963965 1.71744 -1.13691 5.17087 -4.19 -0.131576 10 -5.92999e-014 1.09083e-014 -5.29756 0.928211 -2.88974 13.8183 -21.8074 4.38981 -0.0734205 -0.855134 -11.4738 -10 -5.80203e-014 -8.98879e-015 -0.0164975 5.31446 4.15817 -20.7126 -29.865 -8.74832 0.211765 1.67517 -16.9188 -19.2428 -10.7093 -9.11161 26.5912 23.271 -20.1215 
